<?xml version="1.0" standalone="no"?>
<!DOCTYPE svg PUBLIC "-//W3C//DTD SVG 1.1//EN" "http://www.w3.org/Graphics/SVG/1.1/DTD/svg11.dtd" >
<svg xmlns="http://www.w3.org/2000/svg">
<metadata></metadata>
<defs>
<font id="cyberspaceregular" horiz-adv-x="1968" >
<font-face units-per-em="2048" ascent="1638" descent="-410" />
<missing-glyph horiz-adv-x="1024" />
<glyph horiz-adv-x="2048" />
<glyph horiz-adv-x="2048" />
<glyph unicode="&#xd;" horiz-adv-x="2048" />
<glyph unicode=" "  horiz-adv-x="1024" />
<glyph unicode="&#x09;" horiz-adv-x="1024" />
<glyph unicode="&#xa0;" horiz-adv-x="1024" />
<glyph unicode="!" horiz-adv-x="657" d="M0 0v492h492v-492h-492zM0 573v1065h492v-1065h-492z" />
<glyph unicode="(" horiz-adv-x="962" d="M0 272v1094q0 106 71.5 189t174.5 83h573v-491h-327v-655h327v-492h-573q-103 0 -174.5 82t-71.5 190z" />
<glyph unicode=")" horiz-adv-x="983" d="M0 0v492h328v655h-328v491h573q103 0 174.5 -83t71.5 -189v-1094q0 -108 -71.5 -190t-174.5 -82h-573z" />
<glyph unicode="*" horiz-adv-x="1611" d="M-4 715l250 143l-236 137l246 426l233 -137v272h492v-272l221 127l246 -426l-219 -127l233 -133l-245 -426l-236 135v-270h-492v268l-247 -143z" />
<glyph unicode="+" horiz-adv-x="1427" d="M0 655v492h410v409h491v-409h410v-492h-410v-409h-491v409h-410z" />
<glyph unicode="," horiz-adv-x="684" d="M4 1147v491h492v-491h-492z" />
<glyph unicode="-" horiz-adv-x="1484" d="M0 655v492h1311v-492h-1311z" />
<glyph unicode="." horiz-adv-x="663" d="M0 0v492h492v-492h-492z" />
<glyph unicode="/" horiz-adv-x="1878" d="M33 0l1147 1638h639l-1131 -1638h-655z" />
<glyph unicode="0" horiz-adv-x="2129" d="M0 246v1147q0 101 80 173t192 72h1422q111 0 191.5 -72t80.5 -173v-1147q0 -102 -80.5 -174t-191.5 -72h-1422q-113 0 -192.5 71.5t-79.5 174.5zM492 492h983v655h-983v-655z" />
<glyph unicode="1" horiz-adv-x="1148" d="M0 1147l328 491h655v-1638h-491v1147h-492z" />
<glyph unicode="2" horiz-adv-x="2138" d="M0 0v793q0 106 71.5 189t174.5 83h1229v82h-1475v491h1720q103 0 174.5 -83t71.5 -189v-520q0 -108 -71.5 -190.5t-174.5 -82.5h-1228v-81h1474v-492h-1966z" />
<glyph unicode="3" horiz-adv-x="2129" d="M0 0v492h1475v81h-1475v492h1475v82h-1475v491h1720q103 0 174.5 -83t71.5 -189v-1094q0 -108 -71.5 -190t-174.5 -82h-1720z" />
<glyph unicode="4" d="M0 901v737h492v-491h819v491h491v-1638h-491v655h-1039q-108 0 -190 71.5t-82 174.5z" />
<glyph unicode="5" horiz-adv-x="2125" d="M0 0v492h1475v81h-1475v1065h1966v-491h-1474v-82h1228q103 0 174.5 -83t71.5 -189v-521q0 -108 -71.5 -190t-174.5 -82h-1720z" />
<glyph unicode="6" horiz-adv-x="2125" d="M0 272v1094q0 106 71.5 189t174.5 83h1720v-491h-1474v-82h1228q103 0 174.5 -83t71.5 -189v-521q0 -108 -71.5 -190t-174.5 -82h-1474q-103 0 -174.5 82t-71.5 190zM492 492h983v81h-983v-81z" />
<glyph unicode="7" horiz-adv-x="2023" d="M0 1147v491h1966l-1147 -1638h-655l803 1147h-967z" />
<glyph unicode="8" horiz-adv-x="2129" d="M0 272v1094q0 106 71.5 189t174.5 83h1474q103 0 174.5 -83t71.5 -189v-1094q0 -108 -71.5 -190t-174.5 -82h-1474q-103 0 -174.5 82t-71.5 190zM492 492h983v81h-983v-81zM492 1065h983v82h-983v-82z" />
<glyph unicode="9" horiz-adv-x="2129" d="M0 0v492h1475v81h-1229q-103 0 -174.5 82.5t-71.5 190.5v520q0 106 71.5 189t174.5 83h1474q103 0 174.5 -83t71.5 -189v-1094q0 -108 -71.5 -190t-174.5 -82h-1720zM492 1065h983v82h-983v-82z" />
<glyph unicode=":" horiz-adv-x="659" d="M0 160v491h492v-491h-492zM0 965v491h492v-491h-492z" />
<glyph unicode=";" horiz-adv-x="657" d="M0 -123v774h492v-774h-492zM0 965v491h492v-491h-492z" />
<glyph unicode="=" horiz-adv-x="1476" d="M0 246v491h1311v-491h-1311zM0 901v492h1311v-492h-1311z" />
<glyph unicode="?" horiz-adv-x="2074" d="M0 1147v491h1720q101 0 173.5 -80.5t72.5 -191.5v-520q0 -112 -72.5 -192.5t-173.5 -80.5h-983v492h738v82h-1475zM737 0v492h492v-492h-492z" />
<glyph unicode="A" d="M0 0l1147 1638h655v-1638h-983l328 492h164v444l-656 -936h-655z" />
<glyph unicode="B" horiz-adv-x="2129" d="M0 0v1638h1720q100 0 173 -81t73 -191v-1094q0 -110 -73 -191t-173 -81h-1720zM492 492h983v81h-983v-81zM492 1065h983v82h-983v-82z" />
<glyph unicode="C" horiz-adv-x="1873" d="M0 272v1094q0 106 71.5 189t174.5 83h1556v-491h-1310v-655h1310v-492h-1556q-103 0 -174.5 82t-71.5 190z" />
<glyph unicode="D" d="M0 0v1638h1556q94 0 170 -75.5t76 -169.5v-1147q0 -93 -75 -169.5t-171 -76.5h-1556zM492 492h819v655h-819v-655z" />
<glyph unicode="E" horiz-adv-x="2086" d="M0 0v1638h1966v-491h-1474v-164h1474v-328h-1474v-163h1474v-492h-1966z" />
<glyph unicode="F" horiz-adv-x="1873" d="M0 0v1638h1802v-491h-1310v-164h1310v-491h-1310v-492h-492z" />
<glyph unicode="G" horiz-adv-x="1923" d="M0 272v1094q0 106 71.5 189t174.5 83h1556v-491h-1310v-655h819v327h491v-819h-1556q-103 0 -174.5 82t-71.5 190z" />
<glyph unicode="H" d="M0 0v1638h492v-573h819v573h491v-1638h-491v573h-819v-573h-492z" />
<glyph unicode="I" horiz-adv-x="657" d="M0 0v1638h492v-1638h-492z" />
<glyph unicode="J" d="M0 246v573h492v-327h819v1146h491v-1392q0 -103 -83 -174.5t-189 -71.5h-1258q-108 0 -190 71.5t-82 174.5z" />
<glyph unicode="K" horiz-adv-x="1933" d="M0 0v1638h492v-573h311l344 573h655l-352 -585q83 -25 135.5 -89t52.5 -145v-819h-491v573h-655v-573h-492z" />
<glyph unicode="L" horiz-adv-x="1939" d="M0 0v1638h492v-1146h1474v-492h-1966z" />
<glyph unicode="M" horiz-adv-x="2295" d="M0 0v1393q0 103 82 174t190 71h1858v-1638h-492v1147h-327v-1147h-492v1147h-327v-1147h-492z" />
<glyph unicode="N" d="M0 0v1638h655l656 -936v936h491v-1638h-655l-655 936v-936h-492z" />
<glyph unicode="O" horiz-adv-x="2129" d="M0 246v1147q0 101 80 173t192 72h1422q111 0 191.5 -72t80.5 -173v-1147q0 -102 -80.5 -174t-191.5 -72h-1422q-113 0 -192.5 71.5t-79.5 174.5zM492 492h983v655h-983v-655z" />
<glyph unicode="P" horiz-adv-x="1880" d="M0 0v1638h1556q94 0 170 -75.5t76 -169.5v-547q0 -108 -71.5 -190.5t-174.5 -82.5h-1064v-573h-492zM492 1065h819v82h-819v-82z" />
<glyph unicode="Q" horiz-adv-x="1951" d="M0 373v1042q0 93 74 158t174 65h1292q103 0 175.5 -65.5t72.5 -157.5q0 -46 -14 -74h14v-968q0 -123 -113 -187l113 -186h-596l-90 150h-854q-100 0 -174 65t-74 158zM446 596h388l-89 149h596v447h-895v-596z" />
<glyph unicode="R" horiz-adv-x="1966" d="M0 0v1638h1556q27 0 64 -10t80 -32t72.5 -67t29.5 -104v-825q0 -56 -7.5 -97t-27.5 -80t-61 -62t-102 -29l198 -332h-655l-197 328h-295v491h656v328h-819v-1147h-492z" />
<glyph unicode="S" horiz-adv-x="2127" d="M0 0v492h1475v81h-1475v793q0 106 71.5 189t174.5 83h1720v-491h-1474v-82h1474v-793q0 -108 -71.5 -190t-174.5 -82h-1720z" />
<glyph unicode="T" horiz-adv-x="1880" d="M0 1147v491h1802v-491h-655v-1147h-492v1147h-655z" />
<glyph unicode="U" d="M0 246v1392h492v-1146h819v1146h491v-1392q0 -103 -83 -174.5t-189 -71.5h-1258q-108 0 -190 71.5t-82 174.5z" />
<glyph unicode="V" horiz-adv-x="1859" d="M0 0v1638h492v-936l655 936h655l-1147 -1638h-655z" />
<glyph unicode="W" horiz-adv-x="2295" d="M0 0v1638h492v-1146h327v1146h492v-1146h327v1146h492v-1392q0 -103 -83 -174.5t-189 -71.5h-1858z" />
<glyph unicode="X" d="M0 0v573q0 101 72.5 173.5t173.5 72.5q-101 0 -173.5 72.5t-72.5 173.5v573h492v-573h819v573h491v-573q0 -101 -72.5 -173.5t-173.5 -72.5q101 0 173.5 -72.5t72.5 -173.5v-573h-491v573h-819v-573h-492z" />
<glyph unicode="Y" horiz-adv-x="1916" d="M0 901v737h492v-491h819v491h491v-737q0 -103 -83 -174.5t-189 -71.5h-383v-655h-492v655h-383q-108 0 -190 71.5t-82 174.5z" />
<glyph unicode="Z" horiz-adv-x="2099" d="M0 0v492l983 655h-983v491h1966v-491l-983 -655h983v-492h-1966z" />
<glyph unicode="[" horiz-adv-x="962" d="M0 0v1638h819v-491h-327v-655h327v-492h-819z" />
<glyph unicode="\" horiz-adv-x="1851" d="M0 1638h655l1131 -1638h-639z" />
<glyph unicode="]" horiz-adv-x="985" d="M0 0v492h328v655h-328v491h819v-1638h-819z" />
<glyph unicode="a" horiz-adv-x="1865" d="M0 0v1638h655l1147 -1638h-655l-655 936v-444h163l328 -492h-983z" />
<glyph unicode="b" horiz-adv-x="2129" d="M0 0v1638h1720q103 0 174.5 -83t71.5 -189v-1094q0 -108 -71.5 -190t-174.5 -82h-1720zM492 492h983v163h-983v-163zM492 983h983v164h-983v-164z" />
<glyph unicode="c" horiz-adv-x="1873" d="M0 272v1094q0 106 71.5 189t174.5 83h1556v-491h-1310v-655h1310v-492h-1556q-103 0 -174.5 82t-71.5 190z" />
<glyph unicode="d" d="M0 0v1638h1556q94 0 170 -75.5t76 -169.5v-1147q0 -93 -75 -169.5t-171 -76.5h-1556zM492 492h819v655h-819v-655z" />
<glyph unicode="e" horiz-adv-x="2138" d="M0 272v1094q0 106 71.5 189t174.5 83h1720v-491h-1474v-82h1474v-492h-1474v-81h1474v-492h-1720q-103 0 -174.5 82t-71.5 190z" />
<glyph unicode="f" horiz-adv-x="1878" d="M0 0v1638h1802v-491h-1310v-82h1310v-492h-1310v-573h-492z" />
<glyph unicode="g" horiz-adv-x="2195" d="M0 287v1079q0 112 76.5 192t187.5 80h1575v-491h-1311v-655h652l-197 327h655l492 -819h-1884v14q-104 7 -175 86.5t-71 186.5z" />
<glyph unicode="h" d="M0 0v1638h492v-573h819v573h491v-1638h-491v573h-819v-573h-492z" />
<glyph unicode="i" horiz-adv-x="657" d="M0 0v1638h492v-1638h-492z" />
<glyph unicode="j" d="M0 246v573h492v-327h819v1146h491v-1392q0 -103 -83 -174.5t-189 -71.5h-1258q-108 0 -190 71.5t-82 174.5z" />
<glyph unicode="k" horiz-adv-x="1918" d="M0 0v1638h492v-491h360l295 491h655l-491 -819l491 -819h-655l-393 655h-262v-655h-492z" />
<glyph unicode="l" horiz-adv-x="1939" d="M0 0v1638h492v-1146h1474v-492h-1966z" />
<glyph unicode="m" horiz-adv-x="2295" d="M0 0v1393q0 103 82 174t190 71h1858v-1638h-492v1147h-327v-1147h-492v1147h-327v-1147h-492z" />
<glyph unicode="n" d="M0 0v1638h655l656 -936v936h491v-1638h-655l-655 936v-444h163l328 -492h-983z" />
<glyph unicode="o" horiz-adv-x="2129" d="M0 246v1147q0 101 80 173t192 72h1422q111 0 191.5 -72t80.5 -173v-1147q0 -102 -80.5 -174t-191.5 -72h-1422q-113 0 -192.5 71.5t-79.5 174.5zM492 492h983v655h-983v-655z" />
<glyph unicode="p" horiz-adv-x="1880" d="M0 0v1638h1556q94 0 170 -75.5t76 -169.5v-547q0 -108 -71.5 -190.5t-174.5 -82.5h-1064v-573h-492zM492 1065h819v82h-819v-82z" />
<glyph unicode="q" horiz-adv-x="1951" d="M0 373v1042q0 93 74 158t174 65h1292q103 0 175.5 -65.5t72.5 -157.5q0 -46 -14 -74h14v-968q0 -123 -113 -187l113 -186h-596l-90 150h-854q-100 0 -174 65t-74 158zM446 596h388l-89 149h596v447h-895v-596z" />
<glyph unicode="r" horiz-adv-x="1955" d="M0 0v1638h1556q133 0 191 -63q26 -27 38.5 -66.5t14.5 -66.5t2 -76v-520v-23q0 -97 -67 -173.5t-162 -76.5h-17h-98l344 -573h-655l-344 573h-148v492h656v82h-819v-1147h-492z" />
<glyph unicode="s" horiz-adv-x="2129" d="M0 0v492h1475v163h-1475v711q0 106 71.5 189t174.5 83h1720v-491h-1474v-164h1474v-711q0 -108 -71.5 -190t-174.5 -82h-1720z" />
<glyph unicode="t" horiz-adv-x="1880" d="M0 1147v491h1802v-491h-655v-1147h-492v1147h-655z" />
<glyph unicode="u" d="M0 246v1392h492v-1146h819v1146h491v-1392q0 -103 -83 -174.5t-189 -71.5h-1258q-108 0 -190 71.5t-82 174.5z" />
<glyph unicode="v" horiz-adv-x="1859" d="M0 0v1638h492v-936l655 936h655l-1147 -1638h-655z" />
<glyph unicode="w" horiz-adv-x="2295" d="M0 0v1638h492v-1146h327v1146h492v-1146h327v1146h492v-1392q0 -103 -83 -174.5t-189 -71.5h-1858z" />
<glyph unicode="x" horiz-adv-x="1935" d="M0 0l573 819l-573 819h655l246 -350l246 350h655l-573 -819l573 -819h-655l-246 350l-246 -350h-655z" />
<glyph unicode="y" horiz-adv-x="1878" d="M0 1638h492l409 -614l410 614h491l-655 -983v-655h-492v655z" />
<glyph unicode="z" horiz-adv-x="2099" d="M0 0v492l983 655h-983v491h1966v-491l-983 -655h983v-492h-1966z" />
<glyph unicode="{" horiz-adv-x="1146" d="M0 819q152 0 164 547q0 106 71.5 189t174.5 83h573v-491h-328q-12 -328 -163 -328q151 0 163 -327h328v-492h-573q-103 0 -174.5 82t-71.5 190q-12 547 -164 547z" />
<glyph unicode="|" horiz-adv-x="657" d="M0 -135v1919h492v-1919h-492z" />
<glyph unicode="}" horiz-adv-x="1132" d="M0 0v492h328q12 327 164 327q-152 0 -164 328h-328v491h573q103 0 174.5 -83t71.5 -189q12 -547 164 -547q-152 0 -164 -547q0 -108 -71.5 -190t-174.5 -82h-573z" />
<glyph unicode="&#xad;" horiz-adv-x="1484" d="M0 655v492h1311v-492h-1311z" />
<glyph unicode="&#x2000;" horiz-adv-x="892" />
<glyph unicode="&#x2001;" horiz-adv-x="1784" />
<glyph unicode="&#x2002;" horiz-adv-x="892" />
<glyph unicode="&#x2003;" horiz-adv-x="1784" />
<glyph unicode="&#x2004;" horiz-adv-x="594" />
<glyph unicode="&#x2005;" horiz-adv-x="446" />
<glyph unicode="&#x2006;" horiz-adv-x="297" />
<glyph unicode="&#x2007;" horiz-adv-x="297" />
<glyph unicode="&#x2008;" horiz-adv-x="223" />
<glyph unicode="&#x2009;" horiz-adv-x="356" />
<glyph unicode="&#x200a;" horiz-adv-x="99" />
<glyph unicode="&#x2010;" horiz-adv-x="1484" d="M0 655v492h1311v-492h-1311z" />
<glyph unicode="&#x2011;" horiz-adv-x="1484" d="M0 655v492h1311v-492h-1311z" />
<glyph unicode="&#x2012;" horiz-adv-x="1484" d="M0 655v492h1311v-492h-1311z" />
<glyph unicode="&#x2013;" horiz-adv-x="1197" d="M0 655v492h1024v-492h-1024z" />
<glyph unicode="&#x2014;" horiz-adv-x="2221" d="M0 655v492h2048v-492h-2048z" />
<glyph unicode="&#x202f;" horiz-adv-x="356" />
<glyph unicode="&#x205f;" horiz-adv-x="446" />
<glyph unicode="&#xe000;" horiz-adv-x="1638" d="M0 0v1638h1638v-1638h-1638z" />
</font>
</defs>
</svg>
