<?xml version="1.0" standalone="no"?>
<!DOCTYPE svg PUBLIC "-//W3C//DTD SVG 1.1//EN" "http://www.w3.org/Graphics/SVG/1.1/DTD/svg11.dtd" >
<svg xmlns="http://www.w3.org/2000/svg">
<metadata></metadata>
<defs>
<font id="digital_techregular" horiz-adv-x="1120" >
<font-face units-per-em="2048" ascent="1638" descent="-410" />
<missing-glyph horiz-adv-x="508" />
<glyph horiz-adv-x="2048" />
<glyph horiz-adv-x="2048" />
<glyph unicode="&#xd;" horiz-adv-x="508" />
<glyph unicode=" "  horiz-adv-x="508" />
<glyph unicode="&#x09;" horiz-adv-x="508" />
<glyph unicode="&#xa0;" horiz-adv-x="508" />
<glyph unicode="!" horiz-adv-x="672" />
<glyph unicode="&#x22;" horiz-adv-x="672" />
<glyph unicode="#" horiz-adv-x="1336" />
<glyph unicode="$" horiz-adv-x="1014" />
<glyph unicode="%" horiz-adv-x="1610" />
<glyph unicode="&#x26;" horiz-adv-x="1683" />
<glyph unicode="'" horiz-adv-x="346" />
<glyph unicode="(" horiz-adv-x="758" />
<glyph unicode=")" horiz-adv-x="758" />
<glyph unicode="*" horiz-adv-x="1024" />
<glyph unicode="+" horiz-adv-x="1014" />
<glyph unicode="," horiz-adv-x="557" />
<glyph unicode="-" horiz-adv-x="670" />
<glyph unicode="." horiz-adv-x="557" />
<glyph unicode="/" horiz-adv-x="569" />
<glyph unicode="0" d="M0 234v966q0 70 110 87q31 15 45 65q13 82 78 82h554q71 0 86 -111q15 -31 65 -45q82 -12 82 -78v-966q0 -70 -110 -87q-31 -15 -45 -65q-13 -82 -78 -82h-554q-71 0 -86 111q-15 31 -65 45q-82 12 -82 78zM216 352q0 -123 61 -123q0 -9 74 -12h318q123 0 123 62 q9 0 12 73v730q0 123 -61 123q0 9 -74 12h-318q-123 0 -123 -62q-9 0 -12 -73v-730zM404 492v450q11 74 73 74h70q73 -10 73 -75v-450q-11 -74 -73 -74h-70q-73 10 -73 75z" />
<glyph unicode="1" horiz-adv-x="480" d="M-1 1291v69q11 74 75 74h232q74 -11 74 -75v-1286q-11 -74 -75 -74h-71q-74 11 -74 75v1008q0 127 -74 127q-87 19 -87 82z" />
<glyph unicode="2" d="M0 233v356q0 71 110 86q32 15 45 66q13 82 78 82h436q123 0 123 61q9 0 12 74v123q0 123 -61 123q0 9 -74 12h-596q-73 10 -73 75v69q11 74 73 74h714q71 0 86 -111q15 -31 65 -45q82 -12 82 -78v-360q0 -71 -110 -86q-32 -15 -45 -66q-13 -82 -78 -82h-436 q-123 0 -123 -61q-9 0 -12 -74v-119q0 -123 61 -123q0 -9 74 -12h596q73 -10 73 -75v-69q-11 -74 -73 -74h-714q-71 0 -86 111q-15 31 -65 45q-82 12 -82 78z" />
<glyph unicode="3" d="M-1 72v69q11 74 73 74h596q123 0 123 62q9 0 12 73v119q0 123 -61 123q0 10 -74 12h-436q-74 11 -74 75v74q11 74 75 74h436q123 0 123 61q9 0 12 74v119q0 123 -61 123q0 9 -74 12h-596q-73 10 -73 75v69q11 74 73 74l713 -3q71 0 86 -111q15 -31 65 -45q82 -12 82 -78 v-356q0 -68 -106 -90q-20 -20 -20 -37q0 -37 89 -61q37 -28 37 -66v-356q0 -70 -110 -87q-31 -15 -45 -65q-13 -82 -78 -82h-714q-73 10 -73 75z" />
<glyph unicode="4" d="M0 844v516q11 74 73 74l70 1q73 -10 73 -75v-397q0 -123 61 -123q0 -10 74 -12h318q123 0 123 61q9 0 12 74v397q11 74 73 74h70q73 -10 73 -75v-1286q-11 -74 -73 -74h-70q-73 10 -73 75v401q0 123 -61 123q0 10 -74 12h-436q-71 0 -86 111q-15 31 -65 45q-82 13 -82 78 z" />
<glyph unicode="5" d="M0 74v69q11 74 73 74h596q123 0 123 62q9 0 12 73v119q0 123 -61 123q0 10 -74 12h-436q-71 0 -86 111q-15 31 -65 45q-82 13 -82 78v520q11 74 73 74h874q73 -10 73 -75v-69q-11 -74 -73 -74h-596q-123 0 -123 -62q-9 0 -12 -73v-123q0 -123 61 -123q0 -10 74 -12h436 q71 0 86 -111q15 -31 65 -45q82 -13 82 -78v-356q0 -70 -110 -87q-31 -15 -45 -65q-13 -82 -78 -82h-714q-73 10 -73 75z" />
<glyph unicode="6" d="M0 234v966q0 70 110 87q31 15 45 65q13 82 78 82l714 1q73 -10 73 -75v-69q-11 -74 -73 -74h-596q-123 0 -123 -62q-9 0 -12 -73v-123q0 -123 61 -123q0 -10 74 -12h436q71 0 86 -111q15 -31 65 -45q82 -13 82 -78v-356q0 -70 -110 -87q-31 -15 -45 -65q-13 -82 -78 -82 h-554q-71 0 -86 111q-15 31 -65 45q-82 12 -82 78zM216 353q0 -123 61 -123q0 -9 74 -12h318q123 0 123 62q9 0 12 73v119q0 123 -61 123q0 10 -74 12h-318q-123 0 -123 -61q-9 0 -12 -74v-119z" />
<glyph unicode="7" d="M0 1291v69q11 74 73 74l714 -2q71 0 86 -111q15 -31 65 -45q82 -12 82 -78v-1126q-11 -74 -73 -74h-70q-73 10 -73 75v1008q0 123 -61 123q0 9 -74 12h-596q-73 10 -73 75z" />
<glyph unicode="8" d="M0 234v356q0 68 106 90q20 20 20 37q0 37 -89 61q-37 28 -37 66v356q0 70 110 87q31 15 45 65q13 82 78 82h554q71 0 86 -111q15 -31 65 -45q82 -12 82 -78v-356q0 -68 -106 -90q-20 -20 -20 -37q0 -37 89 -61q37 -28 37 -66v-356q0 -70 -110 -87q-31 -15 -45 -65 q-13 -82 -78 -82h-554q-71 0 -86 111q-15 31 -65 45q-82 12 -82 78zM216 352q0 -123 61 -123q0 -9 74 -12h318q123 0 123 62q9 0 12 73v119q0 123 -61 123q0 10 -74 12h-318q-123 0 -123 -61q-9 0 -12 -74v-119zM216 963q0 -123 61 -123q0 -10 74 -12h318q123 0 123 61 q9 0 12 74v119q0 123 -61 123q0 9 -74 12h-318q-123 0 -123 -62q-9 0 -12 -73v-119z" />
<glyph unicode="9" d="M0 74v69q11 74 73 74h596q123 0 123 62q9 0 12 73v123q0 123 -61 123q0 10 -74 12h-436q-71 0 -86 111q-15 31 -65 45q-82 13 -82 78v356q0 70 110 87q31 15 45 65q13 82 78 82l554 -1q71 0 86 -111q15 -31 65 -45q82 -12 82 -78v-966q0 -70 -110 -87q-31 -15 -45 -65 q-13 -82 -78 -82h-714q-73 10 -73 75zM216 962q0 -123 61 -123q0 -10 74 -12h318q123 0 123 61q9 0 12 74v119q0 123 -61 123q0 9 -74 12h-318q-123 0 -123 -62q-9 0 -12 -73v-119z" />
<glyph unicode=":" horiz-adv-x="557" />
<glyph unicode=";" horiz-adv-x="557" />
<glyph unicode="&#x3c;" horiz-adv-x="1014" />
<glyph unicode="=" horiz-adv-x="1014" />
<glyph unicode="&#x3e;" horiz-adv-x="1014" />
<glyph unicode="?" horiz-adv-x="748" />
<glyph unicode="@" horiz-adv-x="1992" />
<glyph unicode="A" d="M0 74v1126q0 70 110 87q31 15 45 65q13 82 78 82l555 -2q71 0 86 -111q15 -31 65 -45q82 -12 82 -78v-1126q-11 -74 -75 -74h-69q-73 10 -73 75v397q0 123 -62 123q0 11 -73 12h-318q-123 0 -123 -61q-9 0 -12 -74v-397q-11 -74 -73 -74h-70q-73 10 -73 75zM217 961 q0 -123 61 -123q0 -10 74 -12h318q122 0 122 61q10 0 13 74v119q0 123 -62 123q0 9 -73 12h-318q-123 0 -123 -62q-9 0 -12 -73v-119z" />
<glyph unicode="B" d="M0 74v1286q11 74 73 74l714 -1q71 0 86 -111q15 -31 65 -45q82 -12 82 -78v-356q0 -68 -106 -90q-21 -19 -21 -37q0 -37 90 -61q37 -28 37 -66v-356q0 -70 -110 -87q-33 -15 -45 -65q-13 -82 -78 -82h-714q-73 10 -73 75zM216 351q0 -123 61 -123q0 -9 74 -12h318 q122 0 122 62q10 0 13 73v119q0 123 -62 123q0 11 -73 12h-318q-123 0 -123 -61q-9 0 -12 -74v-119zM216 962q0 -123 61 -123q0 -10 74 -12h318q122 0 122 61q10 0 13 74v119q0 123 -62 123q0 9 -73 12h-318q-123 0 -123 -62q-9 0 -12 -73v-119z" />
<glyph unicode="C" d="M0 234v966q0 70 110 87q31 15 45 65q13 82 78 82l715 2q74 -11 74 -75v-69q-11 -74 -75 -74h-595q-123 0 -123 -62q-9 0 -12 -73v-730q0 -123 61 -123q0 -9 74 -12h595q74 -11 74 -75v-69q-11 -74 -75 -74h-713q-71 0 -86 111q-15 31 -65 45q-82 12 -82 78z" />
<glyph unicode="D" d="M0 74v1286q11 74 73 74l714 -1q71 0 86 -111q15 -31 65 -45q82 -12 82 -78v-966q0 -70 -110 -87q-31 -15 -45 -65q-13 -82 -78 -82h-714q-73 10 -73 75zM216 351q0 -123 61 -123q0 -9 74 -12h318q123 0 123 62q9 0 12 73v730q0 123 -61 123q0 9 -74 12h-318 q-123 0 -123 -62q-9 0 -12 -73v-730z" />
<glyph unicode="E" d="M0 234v966q0 70 110 87q31 15 45 65q13 82 78 82l716 3q74 -11 74 -75v-69q-11 -74 -75 -74h-595q-123 0 -123 -62q-9 0 -12 -73v-119q0 -123 61 -123q0 -10 74 -12h595q74 -11 74 -75v-74q-11 -74 -75 -74h-595q-123 0 -123 -61q-9 0 -12 -74v-119q0 -123 61 -123 q0 -9 74 -12h595q74 -11 74 -75v-69q-11 -74 -75 -74h-713q-71 0 -86 111q-15 31 -65 45q-82 12 -82 78z" />
<glyph unicode="F" d="M0 74v1126q0 70 110 87q31 15 45 65q13 82 78 82l715 1q74 -11 74 -75v-69q-11 -74 -75 -74h-595q-123 0 -123 -62q-9 0 -12 -73v-119q0 -123 61 -123q0 -10 74 -12h595q74 -11 74 -75v-74q-11 -74 -75 -74h-595q-123 0 -123 -61q-9 0 -12 -74v-397q-11 -74 -73 -74h-70 q-73 10 -73 75z" />
<glyph unicode="G" d="M0 234v966q0 70 110 87q31 15 45 65q13 82 78 82l714 2q74 -11 74 -75v-69q-11 -74 -75 -74h-595q-123 0 -123 -62q-8 0 -12 -61q0 -186 4 -377q-4 -184 -4 -381q0 -97 74 -115q36 -4 61 -4h318q122 0 122 62q10 0 13 73v119q0 123 -62 123q0 11 -73 12h-277 q-78 13 -78 78v66q12 78 78 78h554q74 -11 74 -75v-520q0 -70 -110 -87q-31 -15 -45 -65q-13 -82 -78 -82h-554q-71 0 -86 111q-15 31 -65 45q-82 12 -82 78z" />
<glyph unicode="H" d="M0 74v1286q11 74 73 74h71q73 -10 73 -75v-397q0 -123 61 -123q0 -10 74 -12h318q122 0 122 61q10 0 13 74v397q11 74 73 74h69q74 -11 74 -75v-1286q-11 -74 -75 -74h-69q-73 10 -73 75v397q0 123 -62 123q0 11 -73 12h-318q-123 0 -123 -61q-9 0 -12 -74v-397 q-11 -74 -73 -74h-70q-73 10 -73 75z" />
<glyph unicode="I" horiz-adv-x="320" d="M0 74v1286q11 74 75 74h70q75 -10 75 -75v-1286q-11 -74 -75 -74h-70q-75 11 -75 75z" />
<glyph unicode="J" d="M0 74v69q11 74 73 74h596q123 0 123 62q9 0 12 73v1008q11 74 73 74h70q73 -10 73 -75v-1126q0 -70 -110 -87q-31 -15 -45 -65q-13 -82 -78 -82h-714q-73 10 -73 75z" />
<glyph unicode="K" d="M0 74v1286q11 74 73 74l72 1q73 -10 73 -75v-397q0 -123 61 -123q0 -10 74 -12h159q130 0 130 94q26 65 57 65q98 21 98 78q9 0 9 62v233q9 74 73 74h69q74 -11 74 -75v-352q0 -71 -110 -86q-33 -15 -45 -66q0 -71 -90 -98q-34 0 -42 -41q0 -37 90 -61q21 0 61 -127 q21 -17 106 -42q29 -32 29 -62v-352q-11 -74 -75 -74h-69q-73 10 -73 75v233q0 131 -90 131q-45 0 -74 74q0 94 -130 94h-159q-123 0 -123 -61q-9 0 -12 -74v-397q-11 -74 -73 -74h-70q-73 10 -73 75z" />
<glyph unicode="L" d="M0 234v1126q11 74 73 74l71 2q73 -10 73 -75v-1008q0 -123 61 -123q0 -9 74 -12h595q74 -11 74 -75v-69q-11 -74 -75 -74h-714q-70 0 -85 111q-15 31 -65 45q-82 12 -82 78z" />
<glyph unicode="M" d="M0 74v1126q0 70 110 87q31 15 45 65q13 82 78 82l151 -3q65 0 94 -107q12 -16 29 -16h4q31 0 57 90q33 33 65 33h155q71 0 86 -111q15 -31 65 -45q82 -12 82 -78v-1126q-11 -74 -75 -74h-69q-73 10 -73 75v1008q0 131 -90 131h-8q-90 0 -90 -131v-398q-11 -74 -73 -74 h-70q-73 10 -73 75v398q0 131 -94 131q-90 0 -90 -131v-1008q-11 -74 -73 -74h-70q-73 10 -73 75z" />
<glyph unicode="N" d="M0 74v1126q0 70 110 87q31 15 45 65q13 82 78 82l554 -2q71 0 86 -111q15 -31 65 -45q82 -12 82 -78v-1126q-11 -74 -73 -74h-70q-73 10 -73 75v1008q0 123 -61 123q0 9 -74 12h-318q-123 0 -123 -62q-9 0 -12 -73v-1008q-11 -74 -73 -74h-70q-73 10 -73 75z" />
<glyph unicode="O" d="M20 232v968q0 71 108 86q32 15 44 66q12 82 76 82h545q69 0 84 -111q15 -32 64 -45q80 -12 80 -78v-968q0 -71 -108 -86q-31 -15 -45 -66q-12 -82 -76 -82h-544q-69 0 -84 111q-15 32 -64 45q-80 12 -80 78zM233 351q0 -123 60 -123q0 -10 72 -13h312q120 0 120 62 q9 0 12 74v730q0 123 -60 123q0 10 -72 13h-312q-120 0 -120 -62q-9 0 -12 -74v-730z" />
<glyph unicode="P" d="M0 74v1286q11 74 73 74l714 -1q71 0 86 -111q15 -31 65 -45q82 -12 82 -78v-356q0 -71 -110 -86q-32 -15 -45 -66q-13 -82 -78 -82h-436q-123 0 -123 -61q-9 0 -12 -74v-401q-11 -74 -73 -74h-70q-73 10 -73 75zM216 962q0 -123 61 -123q0 -10 74 -12h318q123 0 123 61 q9 0 12 74v119q0 123 -61 123q0 9 -74 12h-318q-123 0 -123 -62q-9 0 -12 -73v-119z" />
<glyph unicode="Q" d="M0 234v966q0 70 110 87q31 15 45 65q13 82 78 82h554q71 0 86 -111q15 -31 65 -45q82 -12 82 -78v-966q0 -70 -110 -87q-31 -15 -45 -65q-13 -82 -78 -82h-554q-71 0 -86 111q-15 31 -65 45q-82 12 -82 78zM216 353q0 -131 90 -131h8q90 0 90 131v238q11 74 73 74h70 q73 -10 73 -75v-238q0 -131 94 -131q90 0 90 131v730q0 123 -61 123q0 9 -74 12h-318q-123 0 -123 -62q-9 0 -12 -73v-729z" />
<glyph unicode="R" d="M0 74v1286q11 74 73 74l714 -2q71 0 86 -111q15 -31 65 -45q82 -12 82 -78v-356q0 -66 -106 -94q-16 -10 -16 -29v-4q0 -31 89 -57q33 -34 33 -66v-520q-11 -74 -73 -74h-70q-73 10 -73 75v401q0 123 -61 123q0 10 -74 12h-318q-123 0 -123 -61q-9 0 -12 -74v-401 q-11 -74 -73 -74h-70q-73 10 -73 75zM216 961q0 -123 61 -123q0 -10 74 -12h318q123 0 123 61q9 0 12 74v119q0 123 -61 123q0 9 -74 12h-318q-123 0 -123 -62q-9 0 -12 -73v-119z" />
<glyph unicode="S" d="M0 74v69q11 74 73 74h596q123 0 123 62q9 0 12 73v119q0 123 -61 123q0 10 -74 12h-436q-71 0 -86 111q-15 31 -65 45q-82 13 -82 78v360q0 70 110 87q31 15 45 65q13 82 78 82h714q73 -10 73 -75v-69q-11 -74 -73 -74h-596q-123 0 -123 -62q-9 0 -12 -73v-123 q0 -123 61 -123q0 -10 74 -12h436q71 0 86 -111q15 -31 65 -45q82 -13 82 -78v-356q0 -70 -110 -87q-31 -15 -45 -65q-13 -82 -78 -82h-714q-73 10 -73 75z" />
<glyph unicode="T" d="M0 1291v69q11 74 73 74l874 -1q73 -10 73 -75v-69q-11 -74 -73 -74h-196q-123 0 -123 -62q-9 0 -12 -73v-1008q-11 -74 -73 -74h-70q-73 10 -73 75v1008q0 123 -61 123q0 9 -74 12h-192q-73 10 -73 75z" />
<glyph unicode="U" d="M0 234v1126q11 74 73 74l70 2q73 -10 73 -75v-1008q0 -123 61 -123q0 -9 74 -12h318q123 0 123 62q9 0 12 73v1008q11 74 73 74h70q73 -10 73 -75v-1126q0 -70 -110 -87q-31 -15 -45 -65q-13 -82 -78 -82h-554q-71 0 -86 111q-15 31 -65 45q-82 12 -82 78z" />
<glyph unicode="V" d="M0 402v958q11 74 73 74l71 1q73 -10 73 -75v-840q0 -131 90 -131q43 0 72 -74q0 -94 131 -94t131 94q24 66 57 66q98 20 98 78q8 0 8 61v840q11 74 73 74h70q73 -10 73 -75v-958q0 -70 -118 -91q-23 -5 -53 -117q-23 -25 -115 -50q-16 -11 -44 -114q-32 -29 -62 -29h-236 q-71 0 -86 115q0 23 -78 49q-65 0 -81 115q-15 31 -65 45q-82 12 -82 78z" />
<glyph unicode="W" d="M0 234v1126q11 74 73 74l70 3q73 -10 73 -75v-1008q0 -131 94 -131q90 0 90 131v398q11 74 73 74h70q73 -10 73 -75v-398q0 -131 90 -131h8q90 0 90 131v1008q11 74 73 74h70q73 -10 73 -75v-1126q0 -70 -110 -87q-31 -15 -45 -65q-13 -82 -78 -82h-155q-64 0 -93 107 q-12 16 -29 16h-4q-32 0 -57 -90q-33 -33 -65 -33h-151q-71 0 -86 111q-15 31 -65 45q-82 12 -82 78z" />
<glyph unicode="X" d="M-1 73v352q0 71 110 86q31 15 45 66q0 71 90 98q34 0 42 41q0 37 -90 61q-21 0 -61 127q-21 17 -106 42q-29 32 -29 62v352q11 74 73 74h71q73 -10 73 -75v-233q0 -131 90 -131q43 0 72 -74q0 -94 131 -94t131 94q24 65 57 65q98 21 98 78q8 0 8 62v233q11 74 73 74h70 q73 -10 73 -75v-352q0 -71 -110 -86q-32 -15 -45 -66q0 -71 -90 -98q-34 0 -42 -41q0 -37 90 -61q21 0 61 -127q21 -17 106 -42q29 -32 29 -62v-352q-11 -74 -73 -74h-70q-73 10 -73 75v233q0 131 -90 131q-43 0 -72 74q0 94 -131 94t-131 -94q-24 -65 -57 -65 q-98 -21 -98 -78q-7 0 -9 -62v-233q-11 -74 -73 -74h-70q-73 10 -73 75z" />
<glyph unicode="Y" d="M0 840v520q11 74 73 74l70 1q73 -10 73 -75v-401q0 -123 61 -123q0 -10 74 -12h318q123 0 123 61q9 0 12 74v401q11 74 73 74h70q73 -10 73 -75v-520q0 -71 -110 -86q-32 -15 -45 -66q-13 -82 -78 -82h-32q-123 0 -123 -61q-9 0 -12 -74v-397q-11 -74 -73 -74h-74 q-73 10 -73 75v397q0 123 -61 123q0 10 -74 12h-32q-71 0 -86 111q-15 31 -65 45q-82 13 -82 78z" />
<glyph unicode="Z" d="M0 73v516q0 71 110 86q32 15 45 66q13 82 78 82h436q123 0 123 61q9 0 12 74v123q0 123 -61 123q0 9 -74 12h-596q-73 10 -73 75v69q11 74 73 74h874q73 -10 73 -75v-520q0 -71 -110 -86q-32 -15 -45 -66q-13 -82 -78 -82h-436q-123 0 -123 -61q-9 0 -12 -74v-119 q0 -123 61 -123q0 -9 74 -12h596q73 -10 73 -75v-69q-11 -74 -73 -74h-874q-73 10 -73 75z" />
<glyph unicode="[" horiz-adv-x="758" />
<glyph unicode="\" horiz-adv-x="569" />
<glyph unicode="]" horiz-adv-x="758" />
<glyph unicode="^" horiz-adv-x="1014" />
<glyph unicode="_" horiz-adv-x="1024" />
<glyph unicode="`" horiz-adv-x="1024" />
<glyph unicode="a" d="M0 74v1126q0 70 110 87q31 15 45 65q13 82 78 82l555 -2q71 0 86 -111q15 -31 65 -45q82 -12 82 -78v-1126q-11 -74 -75 -74h-69q-73 10 -73 75v397q0 123 -62 123q0 11 -73 12h-318q-123 0 -123 -61q-9 0 -12 -74v-397q-11 -74 -73 -74h-70q-73 10 -73 75zM217 961 q0 -123 61 -123q0 -10 74 -12h318q122 0 122 61q10 0 13 74v119q0 123 -62 123q0 9 -73 12h-318q-123 0 -123 -62q-9 0 -12 -73v-119z" />
<glyph unicode="b" d="M0 74v1286q11 74 73 74l714 -1q71 0 86 -111q15 -31 65 -45q82 -12 82 -78v-356q0 -68 -106 -90q-21 -19 -21 -37q0 -37 90 -61q37 -28 37 -66v-356q0 -70 -110 -87q-33 -15 -45 -65q-13 -82 -78 -82h-714q-73 10 -73 75zM216 351q0 -123 61 -123q0 -9 74 -12h318 q122 0 122 62q10 0 13 73v119q0 123 -62 123q0 11 -73 12h-318q-123 0 -123 -61q-9 0 -12 -74v-119zM216 962q0 -123 61 -123q0 -10 74 -12h318q122 0 122 61q10 0 13 74v119q0 123 -62 123q0 9 -73 12h-318q-123 0 -123 -62q-9 0 -12 -73v-119z" />
<glyph unicode="c" d="M0 234v966q0 70 110 87q31 15 45 65q13 82 78 82l715 2q74 -11 74 -75v-69q-11 -74 -75 -74h-595q-123 0 -123 -62q-9 0 -12 -73v-730q0 -123 61 -123q0 -9 74 -12h595q74 -11 74 -75v-69q-11 -74 -75 -74h-713q-71 0 -86 111q-15 31 -65 45q-82 12 -82 78z" />
<glyph unicode="d" d="M0 74v1286q11 74 73 74l714 -1q71 0 86 -111q15 -31 65 -45q82 -12 82 -78v-966q0 -70 -110 -87q-31 -15 -45 -65q-13 -82 -78 -82h-714q-73 10 -73 75zM216 351q0 -123 61 -123q0 -9 74 -12h318q123 0 123 62q9 0 12 73v730q0 123 -61 123q0 9 -74 12h-318 q-123 0 -123 -62q-9 0 -12 -73v-730z" />
<glyph unicode="e" d="M0 234v966q0 70 110 87q31 15 45 65q13 82 78 82l716 3q74 -11 74 -75v-69q-11 -74 -75 -74h-595q-123 0 -123 -62q-9 0 -12 -73v-119q0 -123 61 -123q0 -10 74 -12h595q74 -11 74 -75v-74q-11 -74 -75 -74h-595q-123 0 -123 -61q-9 0 -12 -74v-119q0 -123 61 -123 q0 -9 74 -12h595q74 -11 74 -75v-69q-11 -74 -75 -74h-713q-71 0 -86 111q-15 31 -65 45q-82 12 -82 78z" />
<glyph unicode="f" d="M0 74v1126q0 70 110 87q31 15 45 65q13 82 78 82l715 1q74 -11 74 -75v-69q-11 -74 -75 -74h-595q-123 0 -123 -62q-9 0 -12 -73v-119q0 -123 61 -123q0 -10 74 -12h595q74 -11 74 -75v-74q-11 -74 -75 -74h-595q-123 0 -123 -61q-9 0 -12 -74v-397q-11 -74 -73 -74h-70 q-73 10 -73 75z" />
<glyph unicode="g" d="M0 234v966q0 70 110 87q31 15 45 65q13 82 78 82l714 2q74 -11 74 -75v-69q-11 -74 -75 -74h-595q-123 0 -123 -62q-8 0 -12 -61q0 -186 4 -377q-4 -184 -4 -381q0 -97 74 -115q36 -4 61 -4h318q122 0 122 62q10 0 13 73v119q0 123 -62 123q0 11 -73 12h-277 q-78 13 -78 78v66q12 78 78 78h554q74 -11 74 -75v-520q0 -70 -110 -87q-31 -15 -45 -65q-13 -82 -78 -82h-554q-71 0 -86 111q-15 31 -65 45q-82 12 -82 78z" />
<glyph unicode="h" d="M0 74v1286q11 74 73 74h71q73 -10 73 -75v-397q0 -123 61 -123q0 -10 74 -12h318q122 0 122 61q10 0 13 74v397q11 74 73 74h69q74 -11 74 -75v-1286q-11 -74 -75 -74h-69q-73 10 -73 75v397q0 123 -62 123q0 11 -73 12h-318q-123 0 -123 -61q-9 0 -12 -74v-397 q-11 -74 -73 -74h-70q-73 10 -73 75z" />
<glyph unicode="i" horiz-adv-x="320" d="M0 74v1286q11 74 75 74h70q75 -10 75 -75v-1286q-11 -74 -75 -74h-70q-75 11 -75 75z" />
<glyph unicode="j" d="M0 74v69q11 74 73 74h596q123 0 123 62q9 0 12 73v1008q11 74 73 74h70q73 -10 73 -75v-1126q0 -70 -110 -87q-31 -15 -45 -65q-13 -82 -78 -82h-714q-73 10 -73 75z" />
<glyph unicode="k" d="M0 74v1286q11 74 73 74l72 1q73 -10 73 -75v-397q0 -123 61 -123q0 -10 74 -12h159q130 0 130 94q26 65 57 65q98 21 98 78q9 0 9 62v233q9 74 73 74h69q74 -11 74 -75v-352q0 -71 -110 -86q-33 -15 -45 -66q0 -71 -90 -98q-34 0 -42 -41q0 -37 90 -61q21 0 61 -127 q21 -17 106 -42q29 -32 29 -62v-352q-11 -74 -75 -74h-69q-73 10 -73 75v233q0 131 -90 131q-45 0 -74 74q0 94 -130 94h-159q-123 0 -123 -61q-9 0 -12 -74v-397q-11 -74 -73 -74h-70q-73 10 -73 75z" />
<glyph unicode="l" d="M0 234v1126q11 74 73 74l71 2q73 -10 73 -75v-1008q0 -123 61 -123q0 -9 74 -12h595q74 -11 74 -75v-69q-11 -74 -75 -74h-714q-70 0 -85 111q-15 31 -65 45q-82 12 -82 78z" />
<glyph unicode="m" d="M0 74v1126q0 70 110 87q31 15 45 65q13 82 78 82l151 -3q65 0 94 -107q12 -16 29 -16h4q31 0 57 90q33 33 65 33h155q71 0 86 -111q15 -31 65 -45q82 -12 82 -78v-1126q-11 -74 -75 -74h-69q-73 10 -73 75v1008q0 131 -90 131h-8q-90 0 -90 -131v-398q-11 -74 -73 -74 h-70q-73 10 -73 75v398q0 131 -94 131q-90 0 -90 -131v-1008q-11 -74 -73 -74h-70q-73 10 -73 75z" />
<glyph unicode="n" d="M0 74v1126q0 70 110 87q31 15 45 65q13 82 78 82l554 -2q71 0 86 -111q15 -31 65 -45q82 -12 82 -78v-1126q-11 -74 -73 -74h-70q-73 10 -73 75v1008q0 123 -61 123q0 9 -74 12h-318q-123 0 -123 -62q-9 0 -12 -73v-1008q-11 -74 -73 -74h-70q-73 10 -73 75z" />
<glyph unicode="o" d="M20 232v968q0 71 108 86q32 15 44 66q12 82 76 82h545q69 0 84 -111q15 -32 64 -45q80 -12 80 -78v-968q0 -71 -108 -86q-31 -15 -45 -66q-12 -82 -76 -82h-544q-69 0 -84 111q-15 32 -64 45q-80 12 -80 78zM233 351q0 -123 60 -123q0 -10 72 -13h312q120 0 120 62 q9 0 12 74v730q0 123 -60 123q0 10 -72 13h-312q-120 0 -120 -62q-9 0 -12 -74v-730z" />
<glyph unicode="p" d="M0 74v1286q11 74 73 74l714 -1q71 0 86 -111q15 -31 65 -45q82 -12 82 -78v-356q0 -71 -110 -86q-32 -15 -45 -66q-13 -82 -78 -82h-436q-123 0 -123 -61q-9 0 -12 -74v-401q-11 -74 -73 -74h-70q-73 10 -73 75zM216 962q0 -123 61 -123q0 -10 74 -12h318q123 0 123 61 q9 0 12 74v119q0 123 -61 123q0 9 -74 12h-318q-123 0 -123 -62q-9 0 -12 -73v-119z" />
<glyph unicode="q" d="M0 234v966q0 70 110 87q31 15 45 65q13 82 78 82h554q71 0 86 -111q15 -31 65 -45q82 -12 82 -78v-966q0 -70 -110 -87q-31 -15 -45 -65q-13 -82 -78 -82h-554q-71 0 -86 111q-15 31 -65 45q-82 12 -82 78zM216 353q0 -131 90 -131h8q90 0 90 131v238q11 74 73 74h70 q73 -10 73 -75v-238q0 -131 94 -131q90 0 90 131v730q0 123 -61 123q0 9 -74 12h-318q-123 0 -123 -62q-9 0 -12 -73v-729z" />
<glyph unicode="r" d="M0 74v1286q11 74 73 74l714 -2q71 0 86 -111q15 -31 65 -45q82 -12 82 -78v-356q0 -66 -106 -94q-16 -10 -16 -29v-4q0 -31 89 -57q33 -34 33 -66v-520q-11 -74 -73 -74h-70q-73 10 -73 75v401q0 123 -61 123q0 10 -74 12h-318q-123 0 -123 -61q-9 0 -12 -74v-401 q-11 -74 -73 -74h-70q-73 10 -73 75zM216 961q0 -123 61 -123q0 -10 74 -12h318q123 0 123 61q9 0 12 74v119q0 123 -61 123q0 9 -74 12h-318q-123 0 -123 -62q-9 0 -12 -73v-119z" />
<glyph unicode="s" d="M0 74v69q11 74 73 74h596q123 0 123 62q9 0 12 73v119q0 123 -61 123q0 10 -74 12h-436q-71 0 -86 111q-15 31 -65 45q-82 13 -82 78v360q0 70 110 87q31 15 45 65q13 82 78 82h714q73 -10 73 -75v-69q-11 -74 -73 -74h-596q-123 0 -123 -62q-9 0 -12 -73v-123 q0 -123 61 -123q0 -10 74 -12h436q71 0 86 -111q15 -31 65 -45q82 -13 82 -78v-356q0 -70 -110 -87q-31 -15 -45 -65q-13 -82 -78 -82h-714q-73 10 -73 75z" />
<glyph unicode="t" d="M0 1291v69q11 74 73 74l874 -1q73 -10 73 -75v-69q-11 -74 -73 -74h-196q-123 0 -123 -62q-9 0 -12 -73v-1008q-11 -74 -73 -74h-70q-73 10 -73 75v1008q0 123 -61 123q0 9 -74 12h-192q-73 10 -73 75z" />
<glyph unicode="u" d="M0 234v1126q11 74 73 74l70 2q73 -10 73 -75v-1008q0 -123 61 -123q0 -9 74 -12h318q123 0 123 62q9 0 12 73v1008q11 74 73 74h70q73 -10 73 -75v-1126q0 -70 -110 -87q-31 -15 -45 -65q-13 -82 -78 -82h-554q-71 0 -86 111q-15 31 -65 45q-82 12 -82 78z" />
<glyph unicode="v" d="M0 402v958q11 74 73 74l71 1q73 -10 73 -75v-840q0 -131 90 -131q43 0 72 -74q0 -94 131 -94t131 94q24 66 57 66q98 20 98 78q8 0 8 61v840q11 74 73 74h70q73 -10 73 -75v-958q0 -70 -118 -91q-23 -5 -53 -117q-23 -25 -115 -50q-16 -11 -44 -114q-32 -29 -62 -29h-236 q-71 0 -86 115q0 23 -78 49q-65 0 -81 115q-15 31 -65 45q-82 12 -82 78z" />
<glyph unicode="w" d="M0 234v1126q11 74 73 74l70 3q73 -10 73 -75v-1008q0 -131 94 -131q90 0 90 131v398q11 74 73 74h70q73 -10 73 -75v-398q0 -131 90 -131h8q90 0 90 131v1008q11 74 73 74h70q73 -10 73 -75v-1126q0 -70 -110 -87q-31 -15 -45 -65q-13 -82 -78 -82h-155q-64 0 -93 107 q-12 16 -29 16h-4q-32 0 -57 -90q-33 -33 -65 -33h-151q-71 0 -86 111q-15 31 -65 45q-82 12 -82 78z" />
<glyph unicode="x" d="M-1 73v352q0 71 110 86q31 15 45 66q0 71 90 98q34 0 42 41q0 37 -90 61q-21 0 -61 127q-21 17 -106 42q-29 32 -29 62v352q11 74 73 74h71q73 -10 73 -75v-233q0 -131 90 -131q43 0 72 -74q0 -94 131 -94t131 94q24 65 57 65q98 21 98 78q8 0 8 62v233q11 74 73 74h70 q73 -10 73 -75v-352q0 -71 -110 -86q-32 -15 -45 -66q0 -71 -90 -98q-34 0 -42 -41q0 -37 90 -61q21 0 61 -127q21 -17 106 -42q29 -32 29 -62v-352q-11 -74 -73 -74h-70q-73 10 -73 75v233q0 131 -90 131q-43 0 -72 74q0 94 -131 94t-131 -94q-24 -65 -57 -65 q-98 -21 -98 -78q-7 0 -9 -62v-233q-11 -74 -73 -74h-70q-73 10 -73 75z" />
<glyph unicode="y" d="M0 840v520q11 74 73 74l70 1q73 -10 73 -75v-401q0 -123 61 -123q0 -10 74 -12h318q123 0 123 61q9 0 12 74v401q11 74 73 74h70q73 -10 73 -75v-520q0 -71 -110 -86q-32 -15 -45 -66q-13 -82 -78 -82h-32q-123 0 -123 -61q-9 0 -12 -74v-397q-11 -74 -73 -74h-74 q-73 10 -73 75v397q0 123 -61 123q0 10 -74 12h-32q-71 0 -86 111q-15 31 -65 45q-82 13 -82 78z" />
<glyph unicode="z" d="M0 73v516q0 71 110 86q32 15 45 66q13 82 78 82h436q123 0 123 61q9 0 12 74v123q0 123 -61 123q0 9 -74 12h-596q-73 10 -73 75v69q11 74 73 74h874q73 -10 73 -75v-520q0 -71 -110 -86q-32 -15 -45 -66q-13 -82 -78 -82h-436q-123 0 -123 -61q-9 0 -12 -74v-119 q0 -123 61 -123q0 -9 74 -12h596q73 -10 73 -75v-69q-11 -74 -73 -74h-874q-73 10 -73 75z" />
<glyph unicode="{" horiz-adv-x="1014" />
<glyph unicode="|" horiz-adv-x="1014" />
<glyph unicode="}" horiz-adv-x="1014" />
<glyph unicode="~" horiz-adv-x="1014" />
<glyph unicode="&#xa1;" horiz-adv-x="672" />
<glyph unicode="&#xa2;" horiz-adv-x="1139" />
<glyph unicode="&#xa3;" horiz-adv-x="1014" />
<glyph unicode="&#xa4;" horiz-adv-x="1014" />
<glyph unicode="&#xa5;" horiz-adv-x="1262" />
<glyph unicode="&#xa6;" horiz-adv-x="1014" />
<glyph unicode="&#xa7;" horiz-adv-x="1014" />
<glyph unicode="&#xa8;" horiz-adv-x="1024" />
<glyph unicode="&#xa9;" horiz-adv-x="1674" />
<glyph unicode="&#xaa;" horiz-adv-x="648" />
<glyph unicode="&#xab;" horiz-adv-x="944" />
<glyph unicode="&#xac;" horiz-adv-x="1014" />
<glyph unicode="&#xad;" horiz-adv-x="670" />
<glyph unicode="&#xae;" horiz-adv-x="1674" />
<glyph unicode="&#xaf;" horiz-adv-x="670" />
<glyph unicode="&#xb0;" horiz-adv-x="674" />
<glyph unicode="&#xb1;" horiz-adv-x="1014" />
<glyph unicode="&#xb2;" horiz-adv-x="1014" />
<glyph unicode="&#xb3;" horiz-adv-x="1014" />
<glyph unicode="&#xb4;" horiz-adv-x="1024" />
<glyph unicode="&#xb5;" horiz-adv-x="1180" />
<glyph unicode="&#xb6;" horiz-adv-x="1024" />
<glyph unicode="&#xb7;" horiz-adv-x="508" />
<glyph unicode="&#xb8;" horiz-adv-x="1024" />
<glyph unicode="&#xb9;" horiz-adv-x="1014" />
<glyph unicode="&#xba;" horiz-adv-x="718" />
<glyph unicode="&#xbb;" horiz-adv-x="944" />
<glyph unicode="&#xbc;" horiz-adv-x="1708" />
<glyph unicode="&#xbd;" horiz-adv-x="1964" />
<glyph unicode="&#xbe;" horiz-adv-x="1708" />
<glyph unicode="&#xbf;" horiz-adv-x="748" />
<glyph unicode="&#xc0;" horiz-adv-x="1540" />
<glyph unicode="&#xc1;" horiz-adv-x="1540" />
<glyph unicode="&#xc2;" horiz-adv-x="1540" />
<glyph unicode="&#xc3;" horiz-adv-x="1540" />
<glyph unicode="&#xc4;" horiz-adv-x="1540" />
<glyph unicode="&#xc5;" horiz-adv-x="1540" />
<glyph unicode="&#xc6;" horiz-adv-x="2118" />
<glyph unicode="&#xc7;" horiz-adv-x="1399" />
<glyph unicode="&#xc8;" horiz-adv-x="1151" />
<glyph unicode="&#xc9;" horiz-adv-x="1151" />
<glyph unicode="&#xca;" horiz-adv-x="1151" />
<glyph unicode="&#xcb;" horiz-adv-x="1151" />
<glyph unicode="&#xcc;" horiz-adv-x="657" />
<glyph unicode="&#xcd;" horiz-adv-x="657" />
<glyph unicode="&#xce;" horiz-adv-x="657" />
<glyph unicode="&#xcf;" horiz-adv-x="657" />
<glyph unicode="&#xd0;" horiz-adv-x="1518" />
<glyph unicode="&#xd1;" horiz-adv-x="1554" />
<glyph unicode="&#xd2;" horiz-adv-x="1614" />
<glyph unicode="&#xd3;" horiz-adv-x="1614" />
<glyph unicode="&#xd4;" horiz-adv-x="1614" />
<glyph unicode="&#xd5;" horiz-adv-x="1614" />
<glyph unicode="&#xd6;" horiz-adv-x="1614" />
<glyph unicode="&#xd7;" horiz-adv-x="1014" />
<glyph unicode="&#xd8;" horiz-adv-x="1614" />
<glyph unicode="&#xd9;" horiz-adv-x="1501" />
<glyph unicode="&#xda;" horiz-adv-x="1501" />
<glyph unicode="&#xdb;" horiz-adv-x="1501" />
<glyph unicode="&#xdc;" horiz-adv-x="1501" />
<glyph unicode="&#xdd;" horiz-adv-x="1233" />
<glyph unicode="&#xde;" />
<glyph unicode="&#xdf;" horiz-adv-x="1251" />
<glyph unicode="&#xe0;" horiz-adv-x="922" />
<glyph unicode="&#xe1;" horiz-adv-x="922" />
<glyph unicode="&#xe2;" horiz-adv-x="922" />
<glyph unicode="&#xe3;" horiz-adv-x="922" />
<glyph unicode="&#xe4;" horiz-adv-x="922" />
<glyph unicode="&#xe5;" horiz-adv-x="922" />
<glyph unicode="&#xe6;" horiz-adv-x="1454" />
<glyph unicode="&#xe7;" horiz-adv-x="905" />
<glyph unicode="&#xe8;" horiz-adv-x="909" />
<glyph unicode="&#xe9;" horiz-adv-x="909" />
<glyph unicode="&#xea;" horiz-adv-x="909" />
<glyph unicode="&#xeb;" horiz-adv-x="909" />
<glyph unicode="&#xec;" horiz-adv-x="514" />
<glyph unicode="&#xed;" horiz-adv-x="514" />
<glyph unicode="&#xee;" horiz-adv-x="514" />
<glyph unicode="&#xef;" horiz-adv-x="514" />
<glyph unicode="&#xf0;" horiz-adv-x="1139" />
<glyph unicode="&#xf1;" horiz-adv-x="1108" />
<glyph unicode="&#xf2;" horiz-adv-x="1010" />
<glyph unicode="&#xf3;" horiz-adv-x="1010" />
<glyph unicode="&#xf4;" horiz-adv-x="1010" />
<glyph unicode="&#xf5;" horiz-adv-x="1010" />
<glyph unicode="&#xf6;" horiz-adv-x="1010" />
<glyph unicode="&#xf7;" horiz-adv-x="1014" />
<glyph unicode="&#xf8;" horiz-adv-x="1010" />
<glyph unicode="&#xf9;" horiz-adv-x="1059" />
<glyph unicode="&#xfa;" horiz-adv-x="1059" />
<glyph unicode="&#xfb;" horiz-adv-x="1059" />
<glyph unicode="&#xfc;" horiz-adv-x="1059" />
<glyph unicode="&#xfd;" horiz-adv-x="868" />
<glyph unicode="&#xfe;" horiz-adv-x="1010" />
<glyph unicode="&#xff;" horiz-adv-x="868" />
<glyph unicode="&#x2c6;" horiz-adv-x="1024" />
<glyph unicode="&#x2dc;" horiz-adv-x="1024" />
<glyph unicode="&#x2000;" horiz-adv-x="718" />
<glyph unicode="&#x2001;" horiz-adv-x="1437" />
<glyph unicode="&#x2002;" horiz-adv-x="718" />
<glyph unicode="&#x2003;" horiz-adv-x="1437" />
<glyph unicode="&#x2004;" horiz-adv-x="479" />
<glyph unicode="&#x2005;" horiz-adv-x="359" />
<glyph unicode="&#x2006;" horiz-adv-x="239" />
<glyph unicode="&#x2007;" horiz-adv-x="239" />
<glyph unicode="&#x2008;" horiz-adv-x="179" />
<glyph unicode="&#x2009;" horiz-adv-x="287" />
<glyph unicode="&#x200a;" horiz-adv-x="79" />
<glyph unicode="&#x2010;" horiz-adv-x="670" />
<glyph unicode="&#x2011;" horiz-adv-x="670" />
<glyph unicode="&#x2012;" horiz-adv-x="670" />
<glyph unicode="&#x2013;" horiz-adv-x="1108" />
<glyph unicode="&#x2014;" horiz-adv-x="2048" />
<glyph unicode="&#x2018;" horiz-adv-x="557" />
<glyph unicode="&#x2019;" horiz-adv-x="557" />
<glyph unicode="&#x201a;" horiz-adv-x="557" />
<glyph unicode="&#x201c;" horiz-adv-x="910" />
<glyph unicode="&#x201d;" horiz-adv-x="910" />
<glyph unicode="&#x201e;" horiz-adv-x="910" />
<glyph unicode="&#x2022;" horiz-adv-x="1024" />
<glyph unicode="&#x2026;" horiz-adv-x="2048" />
<glyph unicode="&#x202f;" horiz-adv-x="287" />
<glyph unicode="&#x2039;" horiz-adv-x="631" />
<glyph unicode="&#x203a;" horiz-adv-x="631" />
<glyph unicode="&#x205f;" horiz-adv-x="359" />
<glyph unicode="&#x20ac;" horiz-adv-x="1014" />
<glyph unicode="&#x2122;" horiz-adv-x="1497" />
<glyph unicode="&#xe000;" horiz-adv-x="1435" d="M0 0v1435h1435v-1435h-1435z" />
</font>
</defs>
</svg>
